<svg width="315" height="242" viewBox="0 0 315 242" fill="none" xmlns="http://www.w3.org/2000/svg">
<path opacity="0.3" d="M10.3372 83.4735C10.3372 83.4735 -45.1325 208.765 100.916 210.521C246.964 212.277 313.731 193.033 314.391 129.321C315.05 65.6095 262.453 6.0392 170.768 5.37945C79.0832 4.7197 29.5004 28.694 10.3372 83.4735Z" fill="#E6E6E6"/>
<path d="M225.902 39.8081H134.278L135.537 129.636H261.306V75.2113C261.306 65.8218 257.576 56.8168 250.936 50.1775C244.297 43.5381 235.292 39.8081 225.902 39.8081V39.8081Z" fill="#32B295"/>
<path d="M134.278 39.8081C143.668 39.8081 152.673 43.5381 159.312 50.1775C165.951 56.8168 169.681 65.8218 169.681 75.2113V129.636H98.875V75.2113C98.875 65.8218 102.605 56.8168 109.244 50.1775C115.884 43.5381 124.889 39.8081 134.278 39.8081V39.8081Z" fill="#24285B"/>
<path d="M134.278 219.463C124.889 219.463 115.884 215.733 109.245 209.094C102.605 202.455 98.8752 193.45 98.8752 184.06L98.8752 129.636H169.682V184.06C169.682 193.45 165.952 202.455 159.312 209.094C152.673 215.733 143.668 219.463 134.278 219.463V219.463Z" fill="#32B295"/>
<path opacity="0.09" d="M134.278 219.463C124.889 219.463 115.884 215.733 109.245 209.094C102.605 202.455 98.8752 193.45 98.8752 184.06L98.8752 129.636H169.682V184.06C169.682 193.45 165.952 202.455 159.312 209.094C152.673 215.733 143.668 219.463 134.278 219.463V219.463Z" fill="black"/>
<path d="M200.355 0C200.893 0 201.409 0.213875 201.79 0.594574C202.171 0.975272 202.385 1.49161 202.385 2.03V76.7848H198.233V2.0706C198.233 1.53221 198.447 1.01587 198.828 0.635173C199.209 0.254474 199.725 0.040599 200.263 0.040599L200.355 0Z" fill="#32B295"/>
<path opacity="0.44" d="M200.355 0C200.893 0 201.409 0.213875 201.79 0.594574C202.171 0.975272 202.385 1.49161 202.385 2.03V76.7848H198.233V2.0706C198.233 1.53221 198.447 1.01587 198.828 0.635173C199.209 0.254474 199.725 0.040599 200.263 0.040599L200.355 0Z" fill="white"/>
<path d="M200.477 84.7221C204.838 84.7221 208.373 81.1866 208.373 76.8254C208.373 72.4642 204.838 68.9287 200.477 68.9287C196.116 68.9287 192.58 72.4642 192.58 76.8254C192.58 81.1866 196.116 84.7221 200.477 84.7221Z" fill="#FFD200"/>
<path d="M202.426 2.0708H221.863V9.7239L202.426 14.6467V2.0708Z" fill="#FFD200"/>
<path d="M217.286 129.636H183.08V142.069H217.286V129.636Z" fill="#24285B"/>
<path d="M208.364 142.069H191.718V241.012H208.364V142.069Z" fill="#32B295"/>
<path opacity="0.44" d="M208.364 142.069H191.718V241.012H208.364V142.069Z" fill="white"/>
<path opacity="0.09" d="M191.718 142.069V175.229L208.364 164.623V142.069H191.718Z" fill="black"/>
</svg>
